HIERARCHY
ROOT Hips
{
	OFFSET -3.958830 18.904000 13.208200
	CHANNELS 6 Xposition Yposition Zposition Zrotation Yrotation Xrotation 
	JOINT LHipJoint
	{
		OFFSET 0.000000 0.000000 0.000000
		CHANNELS 3 Zrotation Yrotation Xrotation
		JOINT LeftUpLeg
		{
			OFFSET 1.800000 -1.400000 0.085000
			CHANNELS 3 Zrotation Yrotation Xrotation
			JOINT LeftLeg
			{
				OFFSET 2.215000 -6.000000 0.000000
				CHANNELS 3 Zrotation Yrotation Xrotation
				JOINT LeftFoot
				{
					OFFSET 2.500000 -6.900000 0.000000
					CHANNELS 3 Zrotation Yrotation Xrotation
					JOINT LeftToeBase
					{
						OFFSET 0.200000 -0.500000 1.950000
						CHANNELS 3 Zrotation Yrotation Xrotation
						End Site
						{
							OFFSET 0.000000 0.000000 0.000000
						}
					}
				}
			}
		}
	}
	JOINT RHipJoint
	{
		OFFSET 0.000000 0.000000 0.000000
		CHANNELS 3 Zrotation Yrotation Xrotation
		JOINT RightUpLeg
		{
			OFFSET -1.800000 -1.400000 0.085000
			CHANNELS 3 Zrotation Yrotation Xrotation
			JOINT RightLeg
			{
				OFFSET -2.215000 -6.000000 0.000000
				CHANNELS 3 Zrotation Yrotation Xrotation
				JOINT RightFoot
				{
					OFFSET -2.500000 -6.900000 0.000000
					CHANNELS 3 Zrotation Yrotation Xrotation
					JOINT RightToeBase
					{
						OFFSET -0.200000 -0.500000 1.950000
						CHANNELS 3 Zrotation Yrotation Xrotation
						End Site
						{
							OFFSET 0.000000 0.000000 0.000000
						}
					}
				}
			}
		}
	}
	JOINT LowerBack
	{
		OFFSET 0.000000 0.000000 0.000000
		CHANNELS 3 Zrotation Yrotation Xrotation
		JOINT Spine
		{
			OFFSET -0.087000 1.940000 -0.288900
			CHANNELS 3 Zrotation Yrotation Xrotation
			JOINT Spine1
			{
				OFFSET 0.000000 1.950000 0.060000
				CHANNELS 3 Zrotation Yrotation Xrotation
				JOINT Neck
				{
					OFFSET 0.000000 0.000000 0.000000
					CHANNELS 3 Zrotation Yrotation Xrotation
					JOINT Neck1
					{
						OFFSET 0.000000 1.600000 0.340000
						CHANNELS 3 Zrotation Yrotation Xrotation
						JOINT Head
						{
							OFFSET 0.000000 1.667000 -0.240000
							CHANNELS 3 Zrotation Yrotation Xrotation
							End Site
							{
								OFFSET 0.000000 0.000000 0.000000
							}
						}
					}
				}
				JOINT LeftShoulder
				{
					OFFSET 0.000000 0.000000 0.000000
					CHANNELS 3 Zrotation Yrotation Xrotation
					JOINT LeftArm
					{
						OFFSET 2.700000 1.550000 -0.730000
						CHANNELS 3 Zrotation Yrotation Xrotation
						JOINT LeftForeArm
						{
							OFFSET 5.450000 0.000000 0.000000
							CHANNELS 3 Zrotation Yrotation Xrotation
							JOINT LeftHand
							{
								OFFSET 3.450000 0.000000 0.000000
								CHANNELS 3 Zrotation Yrotation Xrotation
								JOINT LeftHandIndex1
								{
									OFFSET 0.750000 0.000000 0.000000
									CHANNELS 3 Zrotation Yrotation Xrotation
									End Site
									{
										OFFSET 0.000000 0.000000 0.000000
									}
								}
							}
						}
					}
				}
				JOINT RightShoulder
				{
					OFFSET 0.000000 0.000000 0.000000
					CHANNELS 3 Zrotation Yrotation Xrotation
					JOINT RightArm
					{
						OFFSET -2.700000 1.550000 -0.730000
						CHANNELS 3 Zrotation Yrotation Xrotation
						JOINT RightForeArm
						{
							OFFSET -5.450000 0.000000 0.000000
							CHANNELS 3 Zrotation Yrotation Xrotation
							JOINT RightHand
							{
								OFFSET -3.450000 0.000000 0.000000
								CHANNELS 3 Zrotation Yrotation Xrotation
								JOINT RightHandIndex1
								{
									OFFSET -0.750000 0.000000 0.000000
									CHANNELS 3 Zrotation Yrotation Xrotation
									End Site
									{
										OFFSET 0.000000 0.000000 0.000000
									}
								}
							}
						}
					}
				}
			}
		}
	}
}
MOTION
Frames: 4
Frame Time: 0.016667
0.956180 17.458970 -1.737640 -2.666484 21.753680 7.971994 -15.493358 12.461869 3.405818 7.280129 -3.445428 -30.970704 -1.541092 3.865518 11.733860 -1.281541 3.259664 3.271413 -0.086930 -0.374910 -0.192040 17.947546 -11.127930 2.510984 -8.269015 1.910477 -15.452735 9.614830 -6.454321 16.890572 0.054924 -3.975678 2.900945 0.120330 0.679830 0.182790 -2.928737 -0.346767 -7.150325 0.355025 10.080266 11.697266 21.916299 7.368639 15.745578 -2.094015 8.808328 -12.898235 19.998251 -7.764975 53.721305 8.623250 2.456950 1.928470 4.538857 -19.810898 5.210206 -66.679699 -40.262286 13.817660 -28.285972 -50.678516 7.772175 -4.105856 3.328522 0.503960 0.392100 -0.330390 -0.003640 2.138573 18.385960 6.555298 48.634758 22.360936 4.408063 -9.071889 -4.052738 0.397496 2.329375 -1.220132 -0.589700 0.408560 0.565300 -0.224890 
1.010160 17.465150 -1.728180 -2.159527 21.753149 9.777729 -15.498968 12.380933 3.511662 6.444292 -3.848539 -31.539852 -1.832270 3.643281 10.249594 -1.275666 3.037503 3.399508 -0.047940 -0.292860 -0.172990 17.954889 -11.055147 2.495692 -8.829249 1.997998 -16.966249 9.476430 -6.269953 16.587364 0.048895 -3.783028 3.001477 0.146380 0.657050 0.112420 -2.908989 -0.398430 -7.159753 -0.483893 9.839604 10.804818 23.359884 7.004252 14.534689 -2.791070 8.647657 -12.644973 18.116741 -7.569625 50.120936 8.676220 1.302640 -0.696820 5.625890 -17.608301 5.391911 -70.540897 -37.111399 13.518710 -40.318845 -54.753899 14.341129 -4.039572 3.405842 0.530270 0.346120 -0.298590 0.030120 2.345066 15.859619 6.074024 48.530905 19.028696 2.365955 -10.534267 -2.666044 0.209229 2.299627 -1.183332 -0.595180 0.486150 0.508120 -0.214840 
1.073400 17.471640 -1.716620 -1.762590 21.494192 11.380687 -15.488972 12.310183 3.597860 5.713260 -4.204908 -31.912643 -2.149863 3.461982 8.995869 -1.268672 2.880483 3.490435 -0.033050 -0.250100 -0.166070 17.975231 -10.987660 2.495335 -9.472387 2.058461 -18.273209 9.451037 -6.123899 16.103061 0.057826 -3.635883 3.077855 0.153670 0.642350 0.073750 -2.935708 -0.439552 -7.185241 -0.746673 9.435478 10.080671 23.824536 6.662226 13.298813 -3.192577 8.307439 -12.128693 15.840310 -7.480286 46.109349 8.134360 0.015190 -2.971950 5.854489 -15.091272 5.449417 -73.481600 -33.293052 13.238294 -53.328260 -56.948681 22.534575 -3.991283 3.461978 0.539620 0.322470 -0.280870 0.045740 2.751503 13.096694 5.440162 48.846200 15.822749 0.274205 -12.219521 0.032818 -0.202893 2.251364 -1.158869 -0.592750 0.528780 0.474200 -0.204040 
1.134570 17.481440 -1.708430 -1.258416 21.211846 13.045628 -15.491649 12.247443 3.688678 4.610119 -4.642308 -32.550399 -1.991275 3.210387 7.951174 -1.234502 2.683795 3.578659 -0.007060 -0.191160 -0.151590 17.991184 -10.900997 2.482461 -10.026686 2.075016 -19.459423 9.157434 -5.873538 15.419397 0.069996 -3.476305 3.142670 0.160530 0.606560 0.071040 -2.934232 -0.530898 -7.185866 -1.142693 9.005187 9.253588 24.338148 6.236830 12.111773 -3.454270 7.694020 -11.485772 13.199197 -8.088778 41.739460 6.610360 -1.707630 -5.039510 5.408806 -12.370890 5.408357 -75.584190 -28.886447 12.793905 -66.415121 -57.267462 31.189587 -3.920420 3.546644 0.512250 0.306370 -0.252470 0.056770 3.539149 10.485435 4.793029 48.135180 12.702780 -1.563824 -13.287073 2.463829 -0.571911 2.231414 -1.155353 -0.546880 0.523740 0.431090 -0.179490 
